<svg xmlns="http://www.w3.org/2000/svg" xmlns:xlink="http://www.w3.org/1999/xlink" version="1.1" x="0px" y="0px" viewBox="0 0 32 40" style="enable-background:new 0 0 32 32;" xml:space="preserve"><path d="M14.601,4.365C14.369,4.214,14.06,4.28,13.91,4.512c-0.817,1.257-0.654,3.042,0.371,4.063  c0.691,0.689,0.798,1.95,0.24,2.811c-0.15,0.231-0.084,0.541,0.147,0.691c0.084,0.055,0.179,0.081,0.272,0.081  c0.164,0,0.324-0.08,0.42-0.228c0.815-1.256,0.652-3.041-0.373-4.063c-0.691-0.689-0.799-1.95-0.239-2.811  C14.898,4.825,14.833,4.516,14.601,4.365z"/><path d="M10.003,4.365C9.771,4.214,9.461,4.28,9.312,4.512C8.494,5.769,8.657,7.554,9.683,8.575c0.691,0.689,0.798,1.95,0.24,2.811  c-0.15,0.231-0.084,0.541,0.147,0.691c0.084,0.055,0.179,0.081,0.272,0.081c0.164,0,0.324-0.08,0.42-0.228  c0.815-1.256,0.652-3.041-0.373-4.063c-0.691-0.689-0.799-1.95-0.239-2.811C10.3,4.825,10.234,4.516,10.003,4.365z"/><path d="M19.199,4.365c-0.231-0.151-0.542-0.085-0.691,0.146c-0.817,1.257-0.654,3.042,0.371,4.063  c0.691,0.689,0.798,1.95,0.24,2.811c-0.15,0.231-0.084,0.541,0.147,0.691c0.084,0.055,0.179,0.081,0.272,0.081  c0.164,0,0.324-0.08,0.42-0.228c0.815-1.256,0.652-3.041-0.373-4.063c-0.691-0.689-0.799-1.95-0.239-2.811  C19.497,4.825,19.431,4.516,19.199,4.365z"/><path d="M4.962,25.381c0,0.276,0.224,0.5,0.5,0.5H7.37v1.335c0,0.276,0.224,0.5,0.5,0.5h13.528c0.276,0,0.5-0.224,0.5-0.5v-1.335  h1.908c0.276,0,0.5-0.224,0.5-0.5s-0.224-0.5-0.5-0.5h-5.2c1.199-0.645,2.224-1.571,2.987-2.69h0.743  c1.256,0,2.437-0.489,3.325-1.378c0.888-0.889,1.377-2.069,1.377-3.325v-1.199c0-0.708-0.323-1.359-0.887-1.788  c-0.563-0.427-1.278-0.566-1.958-0.374l-1.144,0.317v-1.018c0-0.276-0.224-0.5-0.5-0.5H6.718c-0.276,0-0.5,0.224-0.5,0.5v4.04  c0,3.204,1.801,5.994,4.443,7.415h-5.2C5.186,24.881,4.962,25.104,4.962,25.381z M23.049,17.466V15.48l1.412-0.392  c0.377-0.105,0.773-0.029,1.085,0.208c0.313,0.237,0.492,0.599,0.492,0.991v1.199c0,0.989-0.385,1.919-1.084,2.618  c-0.7,0.699-1.629,1.085-2.618,1.085h-0.167C22.727,20.066,23.049,18.804,23.049,17.466z"/><text x="0" y="47" fill="#000000" font-size="5px" font-weight="bold" font-family="'Helvetica Neue', Helvetica, Arial-Unicode, Arial, Sans-serif">Created by Athok</text><text x="0" y="52" fill="#000000" font-size="5px" font-weight="bold" font-family="'Helvetica Neue', Helvetica, Arial-Unicode, Arial, Sans-serif">from the Noun Project</text></svg>