<svg xmlns="http://www.w3.org/2000/svg" xmlns:xlink="http://www.w3.org/1999/xlink" version="1.1" x="0px" y="0px" viewBox="0 0 32 40" style="enable-background:new 0 0 32 32;" xml:space="preserve"><style type="text/css">
	.st0{display:none;}
	.st1{display:inline;}
</style><g><path d="M30,15.69v1.28c0,0.82-0.66,1.48-1.48,1.48H3.48C2.66,18.45,2,17.79,2,16.97v-1.28c0-0.82,0.66-1.49,1.48-1.49h5.65   c1.29,0,2.54,0.43,3.49,1.19l0.82,0.66c1.45,1.16,3.67,1.16,5.12,0l0.82-0.66c0.95-0.76,2.2-1.19,3.49-1.19h5.65   C29.34,14.2,30,14.87,30,15.69z"/><path d="M2.177,24.475l0.197,0.886c0.434,1.95,2.065,3.398,4.05,3.625c7.094,0.813,12.058,0.813,19.152,0   c1.985-0.227,3.615-1.675,4.05-3.625l0.197-0.886c0.162-0.729-0.392-1.42-1.139-1.42H3.316C2.569,23.054,2.015,23.746,2.177,24.475   z"/><path d="M27.733,22.175H4.267c-0.644,0-1.165-0.522-1.165-1.165v-0.54c0-0.644,0.522-1.165,1.165-1.165h23.467   c0.644,0,1.165,0.522,1.165,1.165v0.54C28.899,21.653,28.377,22.175,27.733,22.175z"/><path d="M29.774,10.713l-0.216-1.625c-0.405-3.043-2.749-5.478-5.777-5.983c-5.6-0.934-9.99-0.934-15.59,0   C5.163,3.61,2.819,6.046,2.414,9.089l-0.181,1.359c-0.221,1.665,0.867,2.906,2.278,2.906h22.95   C28.872,13.354,29.961,12.111,29.774,10.713z M9.175,9.775c0,0.235-0.19,0.425-0.425,0.425s-0.425-0.19-0.425-0.425V9.09   c0-0.235,0.19-0.425,0.425-0.425s0.425,0.19,0.425,0.425V9.775z M12.8,5.955c0,0.235-0.19,0.425-0.425,0.425   S11.95,6.19,11.95,5.955V5.27c0-0.235,0.19-0.425,0.425-0.425S12.8,5.035,12.8,5.27V5.955z M16.425,9.775   c0,0.235-0.19,0.425-0.425,0.425s-0.425-0.19-0.425-0.425V9.09c0-0.235,0.19-0.425,0.425-0.425s0.425,0.19,0.425,0.425V9.775z    M20.05,5.955c0,0.235-0.19,0.425-0.425,0.425S19.2,6.19,19.2,5.955V5.27c0-0.235,0.19-0.425,0.425-0.425s0.425,0.19,0.425,0.425   V5.955z M23.675,9.775c0,0.235-0.19,0.425-0.425,0.425s-0.425-0.19-0.425-0.425V9.09c0-0.235,0.19-0.425,0.425-0.425   s0.425,0.19,0.425,0.425V9.775z"/></g><text x="0" y="47" fill="#000000" font-size="5px" font-weight="bold" font-family="'Helvetica Neue', Helvetica, Arial-Unicode, Arial, Sans-serif">Created by Rikas Dzihab</text><text x="0" y="52" fill="#000000" font-size="5px" font-weight="bold" font-family="'Helvetica Neue', Helvetica, Arial-Unicode, Arial, Sans-serif">from the Noun Project</text></svg>