<svg xmlns="http://www.w3.org/2000/svg" xmlns:cc="http://creativecommons.org/ns#" xmlns:dc="http://purl.org/dc/elements/1.1/" xmlns:rdf="http://www.w3.org/1999/02/22-rdf-syntax-ns#" version="1.1" viewBox="0 0 26.458 33.0725" x="0px" y="0px"><g transform="matrix(.9999874 0 0 .9999874 -1709.695 -841.8423)"><g transform="matrix(1.160625 0 0 1.161506 1770.943 888.5844)" stroke-width=".861289"><g transform="matrix(.861605 0 0 .8609514 -2125.145 -666.2169)"><g transform="translate(-40.13739 75.21084)"><g transform="translate(49.09245 44.76671)"><g transform="translate(78.71878 1.782124)"><g transform="translate(-12.82559 5.082784)" stroke-width=".861289"><g transform="matrix(-.2645833 0 0 .2645833 3062.993 725.6042)"><g transform="translate(2664.486 -1411.724)"><path d="m61.33343 955.2171c0.283716 6e-3 0.560695 0.0258 0.829306 0.0608 0.716298 0.0936 1.372894 0.29587 1.937522 0.63497 1.193678 0.71689 2.289826 2.03038 2.612538 2.99529 0.161359 0.48246 0.139526 0.81657 0.04599 1.02069-0.09354 0.20413-0.275015 0.42513-0.925738 0.61419-14.1818 4.12048-23.13862 9.18749-27.89081 13.7659-5.506373 4.13414-11.447 12.12866-14.72872 22.97582-0.06669 0.22043-0.285731 0.4698-0.887166 0.70314-0.601435 0.23342-1.500132 0.37637-2.480498 0.38579-1.960741 0.019-4.276183-0.52426-5.386787-1.19132-1.129244-0.67818-1.395918-1.37451-1.400475-2.35588-0.0012-0.23557 0.02586-0.48839 0.07121-0.75068 0.121198-0.45538 0.261622-0.93219 0.412428-1.41828 0.157917-0.41551 0.336494-0.83453 0.548918-1.24619 4.322684-8.37705 9.240438-14.55814 15.75831-20.10215 6.517871-5.54402 14.25078-10.11292 25.11954-14.62784 2.063706-0.85727 4.37843-1.50418 6.364447-1.46427zm3.585749 7.98153 30.22148 46.73493-14.75839-2.8218a1.139487 1.139487 0 0 0-0.0015 0l-14.7124-2.8009a1.139487 1.139487 0 0 0-3e-3 0l-8.477027-1.5963a1.139487 1.139487 0 0 0-1.350034 1.1201v15.5655c0 0.6788-0.526693 1.2046-1.198712 1.2046-0.084 0-0.16548-0.01-0.243303-0.024-0.07782-0.015-0.15212-0.037-0.222533-0.067-0.422461-0.1753-0.700238-0.5908-0.700238-1.1141v-16.4779a1.139487 1.139487 0 0 0-0.927221-1.1187l-6.494999-1.2372a1.139487 1.139487 0 0 0-1.353001 1.1186v8.7604c0 0.6788-0.526694 1.2046-1.198712 1.2046-0.084 0-0.166069-0.01-0.244785-0.024-0.551015-0.1099-0.953926-0.587-0.953926-1.1809v-9.6402a1.139487 1.139487 0 0 0-0.927202-1.11754l-15.5877-2.95075c3.225722-9.81219 8.7482-17.03928 13.55672-20.63623a1.139487 1.139487 0 0 0 0.111266-0.0935c4.13603-4.012 12.3724-8.82414 25.4652-12.80752zm-5.429807 7.56018c-2.184666-0.0112-4.376144 0.64705-5.908995 1.95088-2.725072 2.31791-2.274236 5.74878 0.875296 7.6403 3.149533 1.89153 7.956518 1.61767 10.68159-0.70024 2.725071-2.31791 2.274236-5.75026-0.875296-7.64178-1.377921-0.82754-3.073408-1.24047-4.772593-1.24916zm-0.612708 1.93901c1.244007-0.0753 2.540125 0.19005 3.602069 0.82782 2.123888 1.27555 2.357351 3.46682 0.65128 4.91799-1.706076 1.45116-4.76722 1.66572-6.891107 0.39017-2.123889-1.27555-2.35735-3.4683-0.651281-4.91946 0.853036-0.72559 2.045032-1.14117 3.289039-1.21652zm-17.54451 5.80366a1.139373 1.139373 0 0 0-1.148271 1.04888 1.139373 1.139373 0 0 0 1.045905 1.22541l7.448924 0.59342a1.139373 1.139373 0 0 0 1.225416-1.0459 1.139373 1.139373 0 0 0-1.045905-1.2269l-7.447441-0.59194a1.139373 1.139373 0 0 0-0.07863-3e-3zm28.56138 0.50886a1.139373 1.139373 0 0 0-0.146872 9e-3 1.139373 1.139373 0 0 0-0.993981 1.26843l1.016234 8.37318a1.139373 1.139373 0 0 0 1.268438 0.9925 1.139373 1.139373 0 0 0 0.993982-1.26844l-1.016235-8.37169a1.139373 1.139373 0 0 0-1.121566-1.00289zm-28.22461 6.4134c-2.184664-0.0112-4.376143 0.64557-5.908995 1.9494-2.72507 2.31791-2.275719 5.74878 0.873813 7.6403 3.149539 1.89152 7.956518 1.61767 10.68159-0.70024 2.72507-2.31791 2.274241-5.74878-0.875297-7.6403-1.377921-0.82754-3.071926-1.24047-4.77111-1.24916zm-0.614191 1.93752c1.244005-0.0753 2.540128 0.19006 3.602069 0.82783 2.123888 1.27555 2.357352 3.4683 0.65128 4.91947-1.706076 1.45116-4.76722 1.66423-6.891108 0.38869-2.123881-1.27555-2.357357-3.46682-0.65128-4.91798 0.853035-0.72559 2.045034-1.14266 3.289039-1.21801zm21.31125 1.08745a1.139373 1.139373 0 0 0-0.146872 8e-3l-8.350925 1.01921a1.139373 1.139373 0 0 0-0.992498 1.26992 1.139373 1.139373 0 0 0 1.268439 0.99249l8.350925-1.01919a1.139373 1.139373 0 0 0 0.992498-1.26993 1.139373 1.139373 0 0 0-1.121567-0.99992zm11.99305 3.42998c-2.184665-0.0112-4.376144 0.64557-5.908996 1.94939-2.72507 2.31791-2.274241 5.75027 0.875297 7.64178 3.149533 1.8915 7.955035 1.6162 10.6801-0.7017 2.72507-2.31794 2.275719-5.7488-0.873813-7.64032-1.377923-0.82754-3.073409-1.24047-4.772593-1.24915zm-0.612708 1.93752c1.244007-0.0754 2.540125 0.19005 3.602069 0.82782 2.123881 1.27555 2.357351 3.46833 0.65128 4.91943-1.70607 1.4512-4.767226 1.6643-6.891108 0.38868-2.123888-1.27549-2.357352-3.46677-0.65128-4.91793 0.853036-0.72558 2.045032-1.14266 3.289039-1.218zm-61.40133 4.59307c0.277748 0.26365 0.585066 0.51105 0.942053 0.72548 1.733308 1.041 4.23594 1.5401 6.581051 1.5177 1.172548-0.011 2.298374-0.1594 3.283101-0.5416 0.663416-0.25731 1.296192-0.65906 1.743174-1.22532l15.1278 2.86472v3.9151l-15.79094-3.0799a1.139373 1.139373 0 0 0-0.234407-0.02 1.139373 1.139373 0 0 0-0.611226 0.5118 1.139373 1.139373 0 0 0-0.406489 0.1484c-0.477829 1.0297-1.64891 2.0229-3.08283 2.5665-1.433911 0.5436-3.076791 0.6298-4.398733 0.1217-1.321949-0.5082-2.40116-1.532-2.927055-3.6258-0.256107-1.0197-0.353318-2.30784-0.225496-3.87804zm34.63208 4.65248 4.217744 0.8041v3.9536l-4.217744-0.9153zm11.14001 2.1452 7.125509 1.3426 14.7124 2.7994 16.33393 3.123c-0.27583 1.0862-1.06286 1.7385-2.23572 2.2238-1.47307 0.6096-3.4981 0.7241-5.03962 0.4421h-2e-3l-23.46389-4.4922h-0.0089-0.0059l-7.416286-1.5266z" color="#000000" color-rendering="auto" dominant-baseline="auto" image-rendering="auto" shape-rendering="auto" solid-color="#000000" stop-color="#000000" style="font-feature-settings:normal;font-variant-alternates:normal;font-variant-caps:normal;font-variant-east-asian:normal;font-variant-ligatures:normal;font-variant-numeric:normal;font-variant-position:normal;font-variation-settings:normal;inline-size:0;isolation:auto;mix-blend-mode:normal;shape-margin:0;shape-padding:0;text-decoration-color:#000000;text-decoration-line:none;text-decoration-style:solid;text-indent:0;text-orientation:mixed;text-transform:none;white-space:normal;"/></g></g></g></g></g></g></g></g></g><text x="0" y="41.458" fill="#000000" font-size="5px" font-weight="bold" font-family="'Helvetica Neue', Helvetica, Arial-Unicode, Arial, Sans-serif">Created by Royal Mansion</text><text x="0" y="46.458" fill="#000000" font-size="5px" font-weight="bold" font-family="'Helvetica Neue', Helvetica, Arial-Unicode, Arial, Sans-serif">from the Noun Project</text></svg>